<svg width="25" height="20" viewBox="0 0 25 20" fill="none" xmlns="http://www.w3.org/2000/svg">
<path d="M2.71432 19.9612C2.17063 19.9612 1.69917 19.7616 1.29993 19.3623C0.900718 18.9631 0.701111 18.4916 0.701111 17.948V2.70939C0.701111 2.16377 0.900718 1.69065 1.29993 1.29004C1.69917 0.889403 2.17063 0.689087 2.71432 0.689087H22.6808C23.2264 0.689087 23.6995 0.889403 24.1002 1.29004C24.5008 1.69065 24.7011 2.16377 24.7011 2.70939V17.948C24.7011 18.4916 24.5008 18.9631 24.1002 19.3623C23.6995 19.7616 23.2264 19.9612 22.6808 19.9612H2.71432ZM12.6976 11.0867L22.6808 4.49713V2.70939L12.6976 9.15118L2.71432 2.70939V4.49713L12.6976 11.0867Z" fill="#D24F20"/>
</svg>
