<svg width="314" height="31" viewBox="0 0 314 31" fill="none" xmlns="http://www.w3.org/2000/svg">
<path d="M0 30.1983V29.7529L1.01541 29.352C1.51576 29.1442 1.85423 28.8769 2.03083 28.5503C2.23685 28.194 2.33987 27.7189 2.33987 27.125V3.875C2.33987 3.28113 2.25157 2.82088 2.07498 2.49425C1.92781 2.13793 1.57463 1.85584 1.01541 1.64799L0 1.24713V0.801724H21.1471L21.412 7.66092H20.9705L19.0721 3.47414C18.8072 2.93966 18.5276 2.5091 18.2333 2.18247C17.939 1.85584 17.4975 1.69253 16.9088 1.69253H8.96213V14.5647H13.686C14.2747 14.5647 14.7161 14.4162 15.0105 14.1193C15.3342 13.7926 15.6138 13.3621 15.8493 12.8276L16.7322 11.046H17.1737V19.0632H16.7322L15.8493 17.1925C15.5844 16.658 15.3048 16.2423 15.0105 15.9454C14.7161 15.6188 14.2747 15.4555 13.686 15.4555H8.96213V29.3075H17.8801C18.4687 29.3075 18.9249 29.159 19.2487 28.8621C19.5725 28.5354 19.8373 28.09 20.0434 27.5259L21.8535 23.3391H22.2949L22.0301 30.1983H0Z" fill="#132738"/>
<path d="M25.0625 30.1983V29.7529L26.5194 29.3075C27.0492 29.159 27.4318 28.8769 27.6673 28.4612C27.9027 28.0158 28.0204 27.4962 28.0204 26.9023V5.47845C27.6967 4.7658 27.4318 4.23132 27.2258 3.875C27.0492 3.51868 26.8431 3.22174 26.6077 2.9842C26.3722 2.71696 26.0485 2.39033 25.6364 2.00431L24.8859 1.24713V0.801724H32.7002L47.3574 20.9784V4.18678C47.3574 3.59291 47.2544 3.05843 47.0484 2.58333C46.8718 2.10824 46.4892 1.79646 45.9005 1.64799L44.4436 1.24713V0.801724H50.7569V1.24713L49.5649 1.64799C49.0351 1.82615 48.7113 2.13793 48.5936 2.58333C48.4759 3.02874 48.417 3.54837 48.417 4.14224V30.3319H45.9447L29.08 6.94828V26.9023C29.08 27.4962 29.1683 28.001 29.3449 28.4167C29.5215 28.8324 29.8894 29.1293 30.4486 29.3075L31.7731 29.7529V30.1983H25.0625Z" fill="#132738"/>
<path d="M52.7691 30.1983V29.6638L68.0886 1.69253H59.7004C58.7291 1.69253 57.9344 1.91523 57.3164 2.36063C56.7277 2.80604 56.1979 3.45929 55.727 4.3204L53.6962 7.92816H53.2547L53.5637 0.801724H75.1523V1.33621L59.8328 29.3075H69.4572C70.4284 29.3075 71.1937 29.0848 71.7529 28.6394C72.3415 28.1643 72.8713 27.4962 73.3422 26.6351L75.2406 23.0718H75.6821L75.3731 30.1983H52.7691Z" fill="#132738"/>
<path d="M91.2075 31C89.4121 31 87.6756 30.6734 85.998 30.0201C84.3498 29.3669 82.8634 28.4018 81.539 27.125C80.244 25.8185 79.2138 24.2002 78.4486 22.2701C77.6834 20.34 77.3007 18.0833 77.3007 15.5C77.3007 12.9464 77.6834 10.7045 78.4486 8.77442C79.2138 6.84435 80.2587 5.2409 81.5831 3.96408C82.9076 2.65757 84.3939 1.67768 86.0421 1.02443C87.7198 0.341475 89.4416 0 91.2075 0C93.0029 0 94.7247 0.326629 96.3729 0.979886C98.0505 1.60345 99.5368 2.56849 100.832 3.875C102.156 5.15182 103.201 6.77012 103.966 8.72989C104.732 10.66 105.114 12.9167 105.114 15.5C105.114 18.0239 104.732 20.2658 103.966 22.2256C103.201 24.1557 102.156 25.7739 100.832 27.0805C99.5368 28.3573 98.0505 29.3372 96.3729 30.0201C94.7247 30.6734 93.0029 31 91.2075 31ZM91.2075 30.0647C92.8263 30.0647 94.136 29.6341 95.1367 28.773C96.1374 27.8822 96.8585 26.3827 97.3 24.2744C97.7709 22.1365 98.0063 19.2117 98.0063 15.5C98.0063 11.7586 97.7709 8.83381 97.3 6.72558C96.8585 4.58764 96.1374 3.08812 95.1367 2.22701C94.136 1.33621 92.8263 0.890804 91.2075 0.890804C89.6182 0.890804 88.3231 1.33621 87.3224 2.22701C86.3217 3.08812 85.5859 4.58764 85.115 6.72558C84.6735 8.83381 84.4528 11.7586 84.4528 15.5C84.4528 19.2117 84.6735 22.1365 85.115 24.2744C85.5859 26.3827 86.3217 27.8822 87.3224 28.773C88.3231 29.6341 89.6182 30.0647 91.2075 30.0647Z" fill="#132738"/>
<path d="M116.579 30.1983V29.7529L117.374 29.4856C117.963 29.2778 118.36 28.9957 118.566 28.6394C118.772 28.283 118.875 27.8079 118.875 27.2141C118.905 25.4325 118.919 23.636 118.919 21.8247C118.919 20.0134 118.919 18.2021 118.919 16.3908V14.6092C118.919 12.8276 118.919 11.046 118.919 9.26437C118.919 7.45307 118.905 5.65661 118.875 3.875C118.875 3.28113 118.787 2.80604 118.61 2.44971C118.463 2.09339 118.11 1.8113 117.551 1.60345L116.579 1.24713V0.801724H137.947L138.256 8.1954H137.815L135.298 3.51868C135.004 2.9545 134.666 2.5091 134.283 2.18247C133.9 1.85584 133.37 1.69253 132.694 1.69253H125.586C125.556 3.80077 125.542 5.95355 125.542 8.15086C125.542 10.3482 125.542 12.5307 125.542 14.6983H130.133C130.81 14.6983 131.31 14.5498 131.634 14.2529C131.958 13.9559 132.267 13.5254 132.561 12.9612L133.488 11.2687H133.93V19.0632H133.488L132.517 17.3707C132.223 16.8362 131.914 16.4057 131.59 16.079C131.296 15.7524 130.81 15.5891 130.133 15.5891H125.542C125.542 17.6676 125.542 19.6571 125.542 21.5575C125.542 23.4282 125.556 25.2692 125.586 27.0805C125.586 28.2385 126.145 28.9957 127.263 29.352L128.588 29.7529V30.1983H116.579Z" fill="#132738"/>
<path d="M140.033 30.1983V29.7529L141.049 29.352C141.549 29.1442 141.887 28.8769 142.064 28.5503C142.27 28.194 142.373 27.7189 142.373 27.125V3.875C142.373 3.28113 142.285 2.82088 142.108 2.49425C141.961 2.13793 141.608 1.85584 141.049 1.64799L140.033 1.24713V0.801724H161.18L161.445 7.66092H161.004L159.105 3.47414C158.84 2.93966 158.561 2.5091 158.267 2.18247C157.972 1.85584 157.531 1.69253 156.942 1.69253H148.995V14.5647H153.719C154.308 14.5647 154.749 14.4162 155.044 14.1193C155.367 13.7926 155.647 13.3621 155.882 12.8276L156.765 11.046H157.207V19.0632H156.765L155.882 17.1925C155.618 16.658 155.338 16.2423 155.044 15.9454C154.749 15.6188 154.308 15.4555 153.719 15.4555H148.995V29.3075H157.913C158.502 29.3075 158.958 29.159 159.282 28.8621C159.606 28.5354 159.871 28.09 160.077 27.5259L161.887 23.3391H162.328L162.063 30.1983H140.033Z" fill="#132738"/>
<path d="M164.522 30.1983V29.7529L165.449 29.4411C166.038 29.2332 166.42 28.966 166.597 28.6394C166.773 28.283 166.862 27.7931 166.862 27.1695V3.875C166.862 3.28113 166.773 2.82088 166.597 2.49425C166.45 2.13793 166.096 1.85584 165.537 1.64799L164.522 1.24713V0.801724H177.148C180.621 0.801724 183.285 1.46983 185.139 2.80604C186.993 4.11255 187.92 5.9387 187.92 8.28448C187.92 9.591 187.435 10.8975 186.464 12.204C185.492 13.5105 183.962 14.5201 181.872 15.2328L188.009 27.5259C188.274 28.0307 188.568 28.4464 188.892 28.773C189.245 29.0699 189.701 29.3372 190.26 29.5747L190.834 29.7974V30.1983H182.932L176.398 16.1681H173.396V27.1695C173.396 27.7337 173.484 28.194 173.661 28.5503C173.837 28.9066 174.205 29.1739 174.764 29.352L175.824 29.7529V30.1983H164.522ZM173.396 15.2773H175.515C177.634 15.2773 179.164 14.7131 180.106 13.5848C181.048 12.4267 181.519 10.7193 181.519 8.46264C181.519 6.17625 181.077 4.48372 180.194 3.38506C179.311 2.2567 177.825 1.69253 175.735 1.69253H173.396V15.2773Z" fill="#132738"/>
<path d="M192.244 30.1983V29.7529L193.127 29.3966C193.715 29.1887 194.098 28.9066 194.275 28.5503C194.481 28.194 194.584 27.7189 194.584 27.125V3.875C194.584 3.28113 194.495 2.80604 194.319 2.44971C194.142 2.09339 193.745 1.8113 193.127 1.60345L192.244 1.24713V0.801724H203.59V1.24713L202.707 1.60345C202.118 1.8113 201.721 2.09339 201.515 2.44971C201.338 2.80604 201.25 3.28113 201.25 3.875V27.125C201.25 27.7189 201.338 28.194 201.515 28.5503C201.721 28.8769 202.118 29.159 202.707 29.3966L203.59 29.7529V30.1983H192.244Z" fill="#132738"/>
<path d="M219.889 31C216.887 31 214.238 30.3764 211.942 29.1293C209.676 27.8525 207.895 26.056 206.6 23.7399C205.334 21.3942 204.702 18.6327 204.702 15.4555C204.702 12.3673 205.334 9.66523 206.6 7.34914C207.866 5.03305 209.69 3.23659 212.074 1.95977C214.488 0.653257 217.402 0 220.816 0C222.376 0 223.818 0.178161 225.142 0.534484C226.496 0.890805 227.777 1.41044 228.983 2.09339L229.16 8.32902H228.718L226.246 3.69684C225.863 2.9545 225.51 2.42002 225.187 2.09339C224.863 1.76676 224.451 1.51437 223.95 1.33621C223.479 1.18774 223.038 1.08381 222.626 1.02443C222.243 0.935344 221.728 0.890804 221.081 0.890804C219.256 0.890804 217.637 1.38075 216.224 2.36063C214.841 3.34052 213.767 4.89943 213.002 7.03736C212.236 9.17529 211.854 11.9813 211.854 15.4555C211.854 18.8999 212.207 21.7059 212.913 23.8736C213.649 26.0412 214.679 27.6298 216.004 28.6394C217.328 29.6193 218.859 30.1092 220.595 30.1092C220.86 30.1092 221.11 30.0943 221.346 30.0647C221.61 30.0053 221.861 29.9459 222.096 29.8865C222.655 29.7974 223.023 29.5599 223.2 29.1739C223.376 28.7878 223.465 28.3276 223.465 27.7931V18.9741C223.465 17.8161 222.876 17.1034 221.699 16.8362L219.668 16.3017V15.8563H232.118V16.3017L231.5 16.4799C230.381 16.8362 229.822 17.5785 229.822 18.7069V28.3721C228.292 29.2332 226.732 29.8865 225.142 30.3319C223.582 30.7773 221.831 31 219.889 31Z" fill="#132738"/>
<path d="M248.012 31C246.217 31 244.48 30.6734 242.802 30.0201C241.154 29.3669 239.668 28.4018 238.343 27.125C237.048 25.8185 236.018 24.2002 235.253 22.2701C234.488 20.34 234.105 18.0833 234.105 15.5C234.105 12.9464 234.488 10.7045 235.253 8.77442C236.018 6.84435 237.063 5.2409 238.388 3.96408C239.712 2.65757 241.198 1.67768 242.847 1.02443C244.524 0.341475 246.246 0 248.012 0C249.807 0 251.529 0.326629 253.177 0.979886C254.855 1.60345 256.341 2.56849 257.636 3.875C258.961 5.15182 260.006 6.77012 260.771 8.72989C261.536 10.66 261.919 12.9167 261.919 15.5C261.919 18.0239 261.536 20.2658 260.771 22.2256C260.006 24.1557 258.961 25.7739 257.636 27.0805C256.341 28.3573 254.855 29.3372 253.177 30.0201C251.529 30.6734 249.807 31 248.012 31ZM248.012 30.0647C249.631 30.0647 250.94 29.6341 251.941 28.773C252.942 27.8822 253.663 26.3827 254.104 24.2744C254.575 22.1365 254.811 19.2117 254.811 15.5C254.811 11.7586 254.575 8.83381 254.104 6.72558C253.663 4.58764 252.942 3.08812 251.941 2.22701C250.94 1.33621 249.631 0.890804 248.012 0.890804C246.423 0.890804 245.128 1.33621 244.127 2.22701C243.126 3.08812 242.39 4.58764 241.919 6.72558C241.478 8.83381 241.257 11.7586 241.257 15.5C241.257 19.2117 241.478 22.1365 241.919 24.2744C242.39 26.3827 243.126 27.8822 244.127 28.773C245.128 29.6341 246.423 30.0647 248.012 30.0647Z" fill="#132738"/>
<path d="M263.037 30.1983V29.7529L263.964 29.3966C264.582 29.159 264.964 28.8769 265.112 28.5503C265.288 28.194 265.376 27.7189 265.376 27.125V3.875C265.376 3.28113 265.288 2.80604 265.112 2.44971C264.935 2.09339 264.552 1.8113 263.964 1.60345L263.037 1.24713V0.801724H274.294V1.24713L273.5 1.60345C272.94 1.8113 272.558 2.10824 272.352 2.49425C272.146 2.85058 272.043 3.32567 272.043 3.91954V29.3075H278.842C279.931 29.3075 280.725 29.0402 281.226 28.5057C281.755 27.9713 282.256 27.1992 282.727 26.1897L284.448 22.4483H284.89L284.493 30.1983H263.037Z" fill="#132738"/>
<path d="M300.093 31C298.298 31 296.561 30.6734 294.884 30.0201C293.236 29.3669 291.749 28.4018 290.425 27.125C289.13 25.8185 288.1 24.2002 287.334 22.2701C286.569 20.34 286.186 18.0833 286.186 15.5C286.186 12.9464 286.569 10.7045 287.334 8.77442C288.1 6.84435 289.144 5.2409 290.469 3.96408C291.793 2.65757 293.28 1.67768 294.928 1.02443C296.606 0.341475 298.327 0 300.093 0C301.889 0 303.61 0.326629 305.259 0.979886C306.936 1.60345 308.423 2.56849 309.718 3.875C311.042 5.15182 312.087 6.77012 312.852 8.72989C313.617 10.66 314 12.9167 314 15.5C314 18.0239 313.617 20.2658 312.852 22.2256C312.087 24.1557 311.042 25.7739 309.718 27.0805C308.423 28.3573 306.936 29.3372 305.259 30.0201C303.61 30.6734 301.889 31 300.093 31ZM300.093 30.0647C301.712 30.0647 303.022 29.6341 304.022 28.773C305.023 27.8822 305.744 26.3827 306.186 24.2744C306.657 22.1365 306.892 19.2117 306.892 15.5C306.892 11.7586 306.657 8.83381 306.186 6.72558C305.744 4.58764 305.023 3.08812 304.022 2.22701C303.022 1.33621 301.712 0.890804 300.093 0.890804C298.504 0.890804 297.209 1.33621 296.208 2.22701C295.207 3.08812 294.472 4.58764 294.001 6.72558C293.559 8.83381 293.339 11.7586 293.339 15.5C293.339 19.2117 293.559 22.1365 294.001 24.2744C294.472 26.3827 295.207 27.8822 296.208 28.773C297.209 29.6341 298.504 30.0647 300.093 30.0647Z" fill="#132738"/>
</svg>
