<svg width="32" height="32" viewBox="0 0 32 32" fill="none" xmlns="http://www.w3.org/2000/svg">
<path d="M18.9091 2H9.09091C5.18 2 2 5.18 2 9.09091V18.9091C2 22.82 5.18 26 9.09091 26H18.9091C22.82 26 26 22.82 26 18.9091V9.09091C26 5.18 22.82 2 18.9091 2ZM14 20C10.6891 20 8 17.3109 8 14C8 10.6891 10.6891 8 14 8C17.3109 8 20 10.6891 20 14C20 17.3109 17.3109 20 14 20ZM20.5455 8.54545C19.9455 8.54545 19.4545 8.05455 19.4545 7.45455C19.4545 6.85455 19.9455 6.36364 20.5455 6.36364C21.1455 6.36364 21.6364 6.85455 21.6364 7.45455C21.6364 8.05455 21.1455 8.54545 20.5455 8.54545Z" fill="#5B7287"/>
<path d="M19 14C19 16.7556 16.7556 19 14 19C11.2444 19 9 16.7556 9 14C9 11.2444 11.2444 9 14 9C16.7556 9 19 11.2444 19 14Z" fill="#5B7287"/>
</svg>
