<svg width="25" height="25" viewBox="0 0 25 25" fill="none" xmlns="http://www.w3.org/2000/svg">
<path d="M23.0374 24.6891C20.3445 24.6891 17.6692 24.0279 15.0116 22.7054C12.3541 21.383 9.96561 19.6631 7.84623 17.5456C5.72682 15.4281 4.00612 13.0389 2.68412 10.3778C1.36211 7.71676 0.701111 5.04193 0.701111 2.35333C0.701111 1.88557 0.861492 1.49125 1.18225 1.17039C1.50302 0.84952 1.89719 0.689087 2.36478 0.689087H6.95522C7.35011 0.689087 7.68584 0.809953 7.9624 1.05169C8.23898 1.2934 8.42051 1.6284 8.50699 2.0567L9.39229 6.06394C9.4517 6.43806 9.44494 6.77176 9.37199 7.06505C9.29905 7.35834 9.15423 7.60815 8.93754 7.81445L5.61944 11.0801C6.81219 13.0405 8.13943 14.745 9.60115 16.1937C11.0629 17.6423 12.7137 18.8705 14.5537 19.8782L17.7078 16.6404C17.9682 16.3632 18.2601 16.1702 18.5835 16.0614C18.9069 15.9525 19.242 15.9387 19.5889 16.02L23.3261 16.8571C23.7377 16.9489 24.0697 17.1469 24.3223 17.4511C24.5748 17.7553 24.7011 18.1216 24.7011 18.5499V23.017C24.7011 23.49 24.5407 23.8869 24.22 24.2078C23.8992 24.5287 23.505 24.6891 23.0374 24.6891Z" fill="#D24F20"/>
</svg>
